<?xml version="1.0" encoding="UTF-8"?>
<!DOCTYPE svg
PUBLIC "-//W3C//DTD SVG 1.1//EN"
       "http://www.w3.org/Graphics/SVG/1.1/DTD/svg11.dtd">
<svg viewBox="63 47 1722 847" width="1659px" height="800px" xmlns="http://www.w3.org/2000/svg" version="1.1">
   <line x1="359" y1="305" x2="369" y2="305" style="stroke:#0bf;stroke-width:1;"/>
   <line x1="510" y1="332" x2="520" y2="332" style="stroke:#0bf;stroke-width:1;"/>
   <line x1="369" y1="305" x2="510" y2="332" style="stroke:#0bf;stroke-width:1;"/>
   <line x1="366.5" y1="305" x2="362.96446609407" y2="308.53553390593" style="stroke:#0bf;stroke-width:2;"/>
   <line x1="366.5" y1="305" x2="362.96446609407" y2="301.46446609407" style="stroke:#0bf;stroke-width:2;"/>
   <line x1="515" y1="332" x2="511.46446609407" y2="335.53553390593" style="stroke:#0bf;stroke-width:2;"/>
   <line x1="515" y1="332" x2="511.46446609407" y2="328.46446609407" style="stroke:#0bf;stroke-width:2;"/>
   <line x1="262" y1="325" x2="252" y2="325" style="stroke:#b0b;stroke-width:1;"/>
   <line x1="188" y1="294" x2="178" y2="294" style="stroke:#b0b;stroke-width:1;"/>
   <line x1="252" y1="325" x2="188" y2="294" style="stroke:#b0b;stroke-width:1;"/>
   <line x1="254.5" y1="325" x2="258.03553390593" y2="328.53553390593" style="stroke:#b0b;stroke-width:2;"/>
   <line x1="254.5" y1="325" x2="258.03553390593" y2="321.46446609407" style="stroke:#b0b;stroke-width:2;"/>
   <line x1="183" y1="294" x2="186.53553390593" y2="297.53553390593" style="stroke:#b0b;stroke-width:2;"/>
   <line x1="183" y1="294" x2="186.53553390593" y2="290.46446609407" style="stroke:#b0b;stroke-width:2;"/>
   <line x1="1298" y1="199" x2="1308" y2="199" style="stroke:#c00;stroke-width:1;"/>
   <line x1="1415" y1="151" x2="1425" y2="151" style="stroke:#c00;stroke-width:1;"/>
   <line x1="1308" y1="199" x2="1415" y2="151" style="stroke:#c00;stroke-width:1;"/>
   <line x1="1305.5" y1="199" x2="1301.9644660941" y2="202.53553390593" style="stroke:#c00;stroke-width:2;"/>
   <line x1="1305.5" y1="199" x2="1301.9644660941" y2="195.46446609407" style="stroke:#c00;stroke-width:2;"/>
   <line x1="1420" y1="151" x2="1416.4644660941" y2="154.53553390593" style="stroke:#c00;stroke-width:2;"/>
   <line x1="1420" y1="151" x2="1416.4644660941" y2="147.46446609407" style="stroke:#c00;stroke-width:2;"/>
   <line x1="1183" y1="179" x2="1173" y2="179" style="stroke:#333;stroke-width:1;"/>
   <line x1="1054" y1="291" x2="1044" y2="291" style="stroke:#333;stroke-width:1;"/>
   <line x1="1173" y1="179" x2="1054" y2="291" style="stroke:#333;stroke-width:1;"/>
   <line x1="1175.5" y1="179" x2="1179.0355339059" y2="182.53553390593" style="stroke:#333;stroke-width:2;"/>
   <line x1="1175.5" y1="179" x2="1179.0355339059" y2="175.46446609407" style="stroke:#333;stroke-width:2;"/>
   <line x1="1049" y1="291" x2="1052.5355339059" y2="294.53553390593" style="stroke:#333;stroke-width:2;"/>
   <line x1="1049" y1="291" x2="1052.5355339059" y2="287.46446609407" style="stroke:#333;stroke-width:2;"/>
   <line x1="628" y1="112" x2="638" y2="112" style="stroke:#0b0;stroke-width:1;"/>
   <line x1="942" y1="291" x2="952" y2="291" style="stroke:#0b0;stroke-width:1;"/>
   <line x1="638" y1="112" x2="942" y2="291" style="stroke:#0b0;stroke-width:1;"/>
   <line x1="635.5" y1="112" x2="631.96446609407" y2="115.53553390593" style="stroke:#0b0;stroke-width:2;"/>
   <line x1="635.5" y1="112" x2="631.96446609407" y2="108.46446609407" style="stroke:#0b0;stroke-width:2;"/>
   <line x1="947" y1="291" x2="943.46446609407" y2="294.53553390593" style="stroke:#0b0;stroke-width:2;"/>
   <line x1="947" y1="291" x2="943.46446609407" y2="287.46446609407" style="stroke:#0b0;stroke-width:2;"/>
   <line x1="943" y1="125" x2="933" y2="125" style="stroke:#333;stroke-width:1;"/>
   <line x1="942" y1="291" x2="952" y2="291" style="stroke:#333;stroke-width:1;"/>
   <line x1="933" y1="125" x2="942" y2="291" style="stroke:#333;stroke-width:1;"/>
   <line x1="935.5" y1="125" x2="939.03553390593" y2="128.53553390593" style="stroke:#333;stroke-width:2;"/>
   <line x1="935.5" y1="125" x2="939.03553390593" y2="121.46446609407" style="stroke:#333;stroke-width:2;"/>
   <line x1="947" y1="291" x2="943.46446609407" y2="294.53553390593" style="stroke:#333;stroke-width:2;"/>
   <line x1="947" y1="291" x2="943.46446609407" y2="287.46446609407" style="stroke:#333;stroke-width:2;"/>
   <line x1="1493" y1="171" x2="1503" y2="171" style="stroke:#bbb;stroke-width:1;"/>
   <line x1="1618" y1="164" x2="1628" y2="164" style="stroke:#bbb;stroke-width:1;"/>
   <line x1="1503" y1="171" x2="1618" y2="164" style="stroke:#bbb;stroke-width:1;"/>
   <line x1="1500.5" y1="171" x2="1496.9644660941" y2="174.53553390593" style="stroke:#bbb;stroke-width:2;"/>
   <line x1="1500.5" y1="171" x2="1496.9644660941" y2="167.46446609407" style="stroke:#bbb;stroke-width:2;"/>
   <line x1="1623" y1="164" x2="1619.4644660941" y2="167.53553390593" style="stroke:#bbb;stroke-width:2;"/>
   <line x1="1623" y1="164" x2="1619.4644660941" y2="160.46446609407" style="stroke:#bbb;stroke-width:2;"/>
   <line x1="1442" y1="575" x2="1432" y2="575" style="stroke:#0b0;stroke-width:1;"/>
   <line x1="1301" y1="553" x2="1291" y2="553" style="stroke:#0b0;stroke-width:1;"/>
   <line x1="1432" y1="575" x2="1301" y2="553" style="stroke:#0b0;stroke-width:1;"/>
   <line x1="1434.5" y1="575" x2="1438.0355339059" y2="578.53553390593" style="stroke:#0b0;stroke-width:2;"/>
   <line x1="1434.5" y1="575" x2="1438.0355339059" y2="571.46446609407" style="stroke:#0b0;stroke-width:2;"/>
   <line x1="1296" y1="553" x2="1299.5355339059" y2="556.53553390593" style="stroke:#0b0;stroke-width:2;"/>
   <line x1="1296" y1="553" x2="1299.5355339059" y2="549.46446609407" style="stroke:#0b0;stroke-width:2;"/>
   <line x1="1220" y1="573" x2="1210" y2="573" style="stroke:#bbb;stroke-width:1;"/>
   <line x1="1054" y1="291" x2="1044" y2="291" style="stroke:#bbb;stroke-width:1;"/>
   <line x1="1210" y1="573" x2="1054" y2="291" style="stroke:#bbb;stroke-width:1;"/>
   <line x1="1212.5" y1="573" x2="1216.0355339059" y2="576.53553390593" style="stroke:#bbb;stroke-width:2;"/>
   <line x1="1212.5" y1="573" x2="1216.0355339059" y2="569.46446609407" style="stroke:#bbb;stroke-width:2;"/>
   <line x1="1049" y1="291" x2="1052.5355339059" y2="294.53553390593" style="stroke:#bbb;stroke-width:2;"/>
   <line x1="1049" y1="291" x2="1052.5355339059" y2="287.46446609407" style="stroke:#bbb;stroke-width:2;"/>
   <line x1="516" y1="708" x2="506" y2="708" style="stroke:#0bf;stroke-width:1;"/>
   <line x1="510" y1="332" x2="520" y2="332" style="stroke:#0bf;stroke-width:1;"/>
   <line x1="506" y1="708" x2="510" y2="332" style="stroke:#0bf;stroke-width:1;"/>
   <line x1="508.5" y1="708" x2="512.03553390593" y2="711.53553390593" style="stroke:#0bf;stroke-width:2;"/>
   <line x1="508.5" y1="708" x2="512.03553390593" y2="704.46446609407" style="stroke:#0bf;stroke-width:2;"/>
   <line x1="515" y1="332" x2="511.46446609407" y2="335.53553390593" style="stroke:#0bf;stroke-width:2;"/>
   <line x1="515" y1="332" x2="511.46446609407" y2="328.46446609407" style="stroke:#0bf;stroke-width:2;"/>
   <line x1="635" y1="352" x2="645" y2="352" style="stroke:#333;stroke-width:1;"/>
   <line x1="942" y1="291" x2="952" y2="291" style="stroke:#333;stroke-width:1;"/>
   <line x1="645" y1="352" x2="942" y2="291" style="stroke:#333;stroke-width:1;"/>
   <line x1="642.5" y1="352" x2="638.96446609407" y2="355.53553390593" style="stroke:#333;stroke-width:2;"/>
   <line x1="642.5" y1="352" x2="638.96446609407" y2="348.46446609407" style="stroke:#333;stroke-width:2;"/>
   <line x1="947" y1="291" x2="943.46446609407" y2="294.53553390593" style="stroke:#333;stroke-width:2;"/>
   <line x1="947" y1="291" x2="943.46446609407" y2="287.46446609407" style="stroke:#333;stroke-width:2;"/>
   <line x1="880" y1="697" x2="890" y2="697" style="stroke:#333;stroke-width:1;"/>
   <line x1="942" y1="291" x2="952" y2="291" style="stroke:#333;stroke-width:1;"/>
   <line x1="890" y1="697" x2="942" y2="291" style="stroke:#333;stroke-width:1;"/>
   <line x1="887.5" y1="697" x2="883.96446609407" y2="700.53553390593" style="stroke:#333;stroke-width:2;"/>
   <line x1="887.5" y1="697" x2="883.96446609407" y2="693.46446609407" style="stroke:#333;stroke-width:2;"/>
   <line x1="947" y1="291" x2="943.46446609407" y2="294.53553390593" style="stroke:#333;stroke-width:2;"/>
   <line x1="947" y1="291" x2="943.46446609407" y2="287.46446609407" style="stroke:#333;stroke-width:2;"/>
   <line x1="759" y1="717" x2="749" y2="717" style="stroke:#0bf;stroke-width:1;"/>
   <line x1="641" y1="688" x2="631" y2="688" style="stroke:#0bf;stroke-width:1;"/>
   <line x1="749" y1="717" x2="641" y2="688" style="stroke:#0bf;stroke-width:1;"/>
   <line x1="751.5" y1="717" x2="755.03553390593" y2="720.53553390593" style="stroke:#0bf;stroke-width:2;"/>
   <line x1="751.5" y1="717" x2="755.03553390593" y2="713.46446609407" style="stroke:#0bf;stroke-width:2;"/>
   <line x1="636" y1="688" x2="639.53553390593" y2="691.53553390593" style="stroke:#0bf;stroke-width:2;"/>
   <line x1="636" y1="688" x2="639.53553390593" y2="684.46446609407" style="stroke:#0bf;stroke-width:2;"/>
   <rect width="97" height="20" x="262" y="255" style="fill:#007;stroke:black;"/>
   <text width="97" height="20" x="267" y="269" style="fill:#fff;" font-family="Arial" font-size="16px"> address</text>
   <rect width="97" height="20" x="262" y="275" style="fill:#aea;stroke:black;"/>
   <text width="97" height="20" x="267" y="289" style="fill:black;" font-family="Arial" font-size="16px">id</text>
   <rect width="97" height="20" x="262" y="295" style="fill:none;stroke:black;"/>
   <text width="97" height="20" x="267" y="309" style="fill:black;" font-family="Arial" font-size="16px">traject_id</text>
   <rect width="97" height="20" x="262" y="315" style="fill:none;stroke:black;"/>
   <text width="97" height="20" x="267" y="329" style="fill:black;" font-family="Arial" font-size="16px">type_id</text>
   <rect width="97" height="20" x="262" y="335" style="fill:none;stroke:black;"/>
   <text width="97" height="20" x="267" y="349" style="fill:black;" font-family="Arial" font-size="16px">address</text>
   <rect width="97" height="20" x="262" y="355" style="fill:none;stroke:black;"/>
   <text width="97" height="20" x="267" y="369" style="fill:black;" font-family="Arial" font-size="16px">complement</text>
   <rect width="97" height="20" x="262" y="375" style="fill:none;stroke:black;"/>
   <text width="97" height="20" x="267" y="389" style="fill:black;" font-family="Arial" font-size="16px">zip_code</text>
   <rect width="97" height="20" x="262" y="395" style="fill:none;stroke:black;"/>
   <text width="97" height="20" x="267" y="409" style="fill:black;" font-family="Arial" font-size="16px">city</text>
   <rect width="50" height="20" x="1628" y="134" style="fill:#007;stroke:black;"/>
   <text width="50" height="20" x="1633" y="148" style="fill:#fff;" font-family="Arial" font-size="16px"> brand</text>
   <rect width="50" height="20" x="1628" y="154" style="fill:#aea;stroke:black;"/>
   <text width="50" height="20" x="1633" y="168" style="fill:black;" font-family="Arial" font-size="16px">id</text>
   <rect width="50" height="20" x="1628" y="174" style="fill:none;stroke:black;"/>
   <text width="50" height="20" x="1633" y="188" style="fill:black;" font-family="Arial" font-size="16px">name</text>
   <rect width="115" height="20" x="1183" y="129" style="fill:#007;stroke:black;"/>
   <text width="115" height="20" x="1188" y="143" style="fill:#fff;" font-family="Arial" font-size="16px"> car</text>
   <rect width="115" height="20" x="1183" y="149" style="fill:#aea;stroke:black;"/>
   <text width="115" height="20" x="1188" y="163" style="fill:black;" font-family="Arial" font-size="16px">id</text>
   <rect width="115" height="20" x="1183" y="169" style="fill:none;stroke:black;"/>
   <text width="115" height="20" x="1188" y="183" style="fill:black;" font-family="Arial" font-size="16px">owner_id</text>
   <rect width="115" height="20" x="1183" y="189" style="fill:none;stroke:black;"/>
   <text width="115" height="20" x="1188" y="203" style="fill:black;" font-family="Arial" font-size="16px">model_id</text>
   <rect width="115" height="20" x="1183" y="209" style="fill:none;stroke:black;"/>
   <text width="115" height="20" x="1188" y="223" style="fill:black;" font-family="Arial" font-size="16px">car_picture</text>
   <rect width="115" height="20" x="1183" y="229" style="fill:none;stroke:black;"/>
   <text width="115" height="20" x="1188" y="243" style="fill:black;" font-family="Arial" font-size="16px">color</text>
   <rect width="115" height="20" x="1183" y="249" style="fill:none;stroke:black;"/>
   <text width="115" height="20" x="1188" y="263" style="fill:black;" font-family="Arial" font-size="16px">places</text>
   <rect width="115" height="20" x="1183" y="269" style="fill:none;stroke:black;"/>
   <text width="115" height="20" x="1188" y="283" style="fill:black;" font-family="Arial" font-size="16px">small_baggage</text>
   <rect width="115" height="20" x="1183" y="289" style="fill:none;stroke:black;"/>
   <text width="115" height="20" x="1188" y="303" style="fill:black;" font-family="Arial" font-size="16px">large_baggage</text>
   <rect width="81" height="20" x="547" y="62" style="fill:#007;stroke:black;"/>
   <text width="81" height="20" x="552" y="76" style="fill:#fff;" font-family="Arial" font-size="16px"> comment</text>
   <rect width="81" height="20" x="547" y="82" style="fill:#aea;stroke:black;"/>
   <text width="81" height="20" x="552" y="96" style="fill:black;" font-family="Arial" font-size="16px">id</text>
   <rect width="81" height="20" x="547" y="102" style="fill:none;stroke:black;"/>
   <text width="81" height="20" x="552" y="116" style="fill:black;" font-family="Arial" font-size="16px">owner_id</text>
   <rect width="81" height="20" x="547" y="122" style="fill:none;stroke:black;"/>
   <text width="81" height="20" x="552" y="136" style="fill:black;" font-family="Arial" font-size="16px">comment</text>
   <rect width="81" height="20" x="547" y="142" style="fill:none;stroke:black;"/>
   <text width="81" height="20" x="552" y="156" style="fill:black;" font-family="Arial" font-size="16px">score</text>
   <rect width="81" height="20" x="547" y="162" style="fill:none;stroke:black;"/>
   <text width="81" height="20" x="552" y="176" style="fill:black;" font-family="Arial" font-size="16px">created_at</text>
   <rect width="81" height="20" x="547" y="182" style="fill:none;stroke:black;"/>
   <text width="81" height="20" x="552" y="196" style="fill:black;" font-family="Arial" font-size="16px">report</text>
   <rect width="205" height="20" x="1502" y="752" style="fill:#007;stroke:black;"/>
   <text width="205" height="20" x="1507" y="766" style="fill:#fff;" font-family="Arial" font-size="16px"> doctrine_migration_versions</text>
   <rect width="205" height="20" x="1502" y="772" style="fill:none;stroke:black;"/>
   <text width="205" height="20" x="1507" y="786" style="fill:black;" font-family="Arial" font-size="16px">version</text>
   <rect width="205" height="20" x="1502" y="792" style="fill:none;stroke:black;"/>
   <text width="205" height="20" x="1507" y="806" style="fill:black;" font-family="Arial" font-size="16px">executed_at</text>
   <rect width="205" height="20" x="1502" y="812" style="fill:none;stroke:black;"/>
   <text width="205" height="20" x="1507" y="826" style="fill:black;" font-family="Arial" font-size="16px">execution_time</text>
   <rect width="71" height="20" x="943" y="75" style="fill:#007;stroke:black;"/>
   <text width="71" height="20" x="948" y="89" style="fill:#fff;" font-family="Arial" font-size="16px"> favorite</text>
   <rect width="71" height="20" x="943" y="95" style="fill:#aea;stroke:black;"/>
   <text width="71" height="20" x="948" y="109" style="fill:black;" font-family="Arial" font-size="16px">id</text>
   <rect width="71" height="20" x="943" y="115" style="fill:none;stroke:black;"/>
   <text width="71" height="20" x="948" y="129" style="fill:black;" font-family="Arial" font-size="16px">owner_id</text>
   <rect width="71" height="20" x="943" y="135" style="fill:none;stroke:black;"/>
   <text width="71" height="20" x="948" y="149" style="fill:black;" font-family="Arial" font-size="16px">user_id</text>
   <rect width="68" height="20" x="1425" y="121" style="fill:#007;stroke:black;"/>
   <text width="68" height="20" x="1430" y="135" style="fill:#fff;" font-family="Arial" font-size="16px"> model</text>
   <rect width="68" height="20" x="1425" y="141" style="fill:#aea;stroke:black;"/>
   <text width="68" height="20" x="1430" y="155" style="fill:black;" font-family="Arial" font-size="16px">id</text>
   <rect width="68" height="20" x="1425" y="161" style="fill:none;stroke:black;"/>
   <text width="68" height="20" x="1430" y="175" style="fill:black;" font-family="Arial" font-size="16px">brand_id</text>
   <rect width="68" height="20" x="1425" y="181" style="fill:none;stroke:black;"/>
   <text width="68" height="20" x="1430" y="195" style="fill:black;" font-family="Arial" font-size="16px">name</text>
   <rect width="118" height="20" x="1442" y="525" style="fill:#007;stroke:black;"/>
   <text width="118" height="20" x="1447" y="539" style="fill:#fff;" font-family="Arial" font-size="16px"> music</text>
   <rect width="118" height="20" x="1442" y="545" style="fill:#aea;stroke:black;"/>
   <text width="118" height="20" x="1447" y="559" style="fill:black;" font-family="Arial" font-size="16px">id</text>
   <rect width="118" height="20" x="1442" y="565" style="fill:none;stroke:black;"/>
   <text width="118" height="20" x="1447" y="579" style="fill:black;" font-family="Arial" font-size="16px">music_option_id</text>
   <rect width="118" height="20" x="1442" y="585" style="fill:none;stroke:black;"/>
   <text width="118" height="20" x="1447" y="599" style="fill:black;" font-family="Arial" font-size="16px">genre</text>
   <rect width="71" height="20" x="1220" y="523" style="fill:#007;stroke:black;"/>
   <text width="71" height="20" x="1225" y="537" style="fill:#fff;" font-family="Arial" font-size="16px"> option</text>
   <rect width="71" height="20" x="1220" y="543" style="fill:#aea;stroke:black;"/>
   <text width="71" height="20" x="1225" y="557" style="fill:black;" font-family="Arial" font-size="16px">id</text>
   <rect width="71" height="20" x="1220" y="563" style="fill:none;stroke:black;"/>
   <text width="71" height="20" x="1225" y="577" style="fill:black;" font-family="Arial" font-size="16px">owner_id</text>
   <rect width="71" height="20" x="1220" y="583" style="fill:none;stroke:black;"/>
   <text width="71" height="20" x="1225" y="597" style="fill:black;" font-family="Arial" font-size="16px">silence</text>
   <rect width="71" height="20" x="1220" y="603" style="fill:none;stroke:black;"/>
   <text width="71" height="20" x="1225" y="617" style="fill:black;" font-family="Arial" font-size="16px">smoke</text>
   <rect width="71" height="20" x="1220" y="623" style="fill:none;stroke:black;"/>
   <text width="71" height="20" x="1225" y="637" style="fill:black;" font-family="Arial" font-size="16px">animals</text>
   <rect width="71" height="20" x="1220" y="643" style="fill:none;stroke:black;"/>
   <text width="71" height="20" x="1225" y="657" style="fill:black;" font-family="Arial" font-size="16px">music</text>
   <rect width="115" height="20" x="516" y="658" style="fill:#007;stroke:black;"/>
   <text width="115" height="20" x="521" y="672" style="fill:#fff;" font-family="Arial" font-size="16px"> reservation</text>
   <rect width="115" height="20" x="516" y="678" style="fill:#aea;stroke:black;"/>
   <text width="115" height="20" x="521" y="692" style="fill:black;" font-family="Arial" font-size="16px">id</text>
   <rect width="115" height="20" x="516" y="698" style="fill:none;stroke:black;"/>
   <text width="115" height="20" x="521" y="712" style="fill:black;" font-family="Arial" font-size="16px">traject_ref_id</text>
   <rect width="115" height="20" x="516" y="718" style="fill:none;stroke:black;"/>
   <text width="115" height="20" x="521" y="732" style="fill:black;" font-family="Arial" font-size="16px">accepted</text>
   <rect width="115" height="20" x="516" y="738" style="fill:none;stroke:black;"/>
   <text width="115" height="20" x="521" y="752" style="fill:black;" font-family="Arial" font-size="16px">places</text>
   <rect width="115" height="20" x="516" y="758" style="fill:none;stroke:black;"/>
   <text width="115" height="20" x="521" y="772" style="fill:black;" font-family="Arial" font-size="16px">small_baggage</text>
   <rect width="115" height="20" x="516" y="778" style="fill:none;stroke:black;"/>
   <text width="115" height="20" x="521" y="792" style="fill:black;" font-family="Arial" font-size="16px">large_baggage</text>
   <rect width="115" height="20" x="516" y="798" style="fill:none;stroke:black;"/>
   <text width="115" height="20" x="521" y="812" style="fill:black;" font-family="Arial" font-size="16px">booked_at</text>
   <rect width="115" height="20" x="520" y="302" style="fill:#007;stroke:black;"/>
   <text width="115" height="20" x="525" y="316" style="fill:#fff;" font-family="Arial" font-size="16px"> traject</text>
   <rect width="115" height="20" x="520" y="322" style="fill:#aea;stroke:black;"/>
   <text width="115" height="20" x="525" y="336" style="fill:black;" font-family="Arial" font-size="16px">id</text>
   <rect width="115" height="20" x="520" y="342" style="fill:none;stroke:black;"/>
   <text width="115" height="20" x="525" y="356" style="fill:black;" font-family="Arial" font-size="16px">owner_id</text>
   <rect width="115" height="20" x="520" y="362" style="fill:none;stroke:black;"/>
   <text width="115" height="20" x="525" y="376" style="fill:black;" font-family="Arial" font-size="16px">passengers</text>
   <rect width="115" height="20" x="520" y="382" style="fill:none;stroke:black;"/>
   <text width="115" height="20" x="525" y="396" style="fill:black;" font-family="Arial" font-size="16px">places</text>
   <rect width="115" height="20" x="520" y="402" style="fill:none;stroke:black;"/>
   <text width="115" height="20" x="525" y="416" style="fill:black;" font-family="Arial" font-size="16px">price</text>
   <rect width="115" height="20" x="520" y="422" style="fill:none;stroke:black;"/>
   <text width="115" height="20" x="525" y="436" style="fill:black;" font-family="Arial" font-size="16px">small_baggage</text>
   <rect width="115" height="20" x="520" y="442" style="fill:none;stroke:black;"/>
   <text width="115" height="20" x="525" y="456" style="fill:black;" font-family="Arial" font-size="16px">large_baggage</text>
   <rect width="115" height="20" x="520" y="462" style="fill:none;stroke:black;"/>
   <text width="115" height="20" x="525" y="476" style="fill:black;" font-family="Arial" font-size="16px">start_time</text>
   <rect width="115" height="20" x="520" y="482" style="fill:none;stroke:black;"/>
   <text width="115" height="20" x="525" y="496" style="fill:black;" font-family="Arial" font-size="16px">created_at</text>
   <rect width="115" height="20" x="520" y="502" style="fill:none;stroke:black;"/>
   <text width="115" height="20" x="525" y="516" style="fill:black;" font-family="Arial" font-size="16px">updated_at</text>
   <rect width="100" height="20" x="78" y="264" style="fill:#007;stroke:black;"/>
   <text width="100" height="20" x="83" y="278" style="fill:#fff;" font-family="Arial" font-size="16px"> type_address</text>
   <rect width="100" height="20" x="78" y="284" style="fill:#aea;stroke:black;"/>
   <text width="100" height="20" x="83" y="298" style="fill:black;" font-family="Arial" font-size="16px">id</text>
   <rect width="100" height="20" x="78" y="304" style="fill:none;stroke:black;"/>
   <text width="100" height="20" x="83" y="318" style="fill:black;" font-family="Arial" font-size="16px">label</text>
   <rect width="92" height="20" x="952" y="261" style="fill:#007;stroke:black;"/>
   <text width="92" height="20" x="957" y="275" style="fill:#fff;" font-family="Arial" font-size="16px"> user</text>
   <rect width="92" height="20" x="952" y="281" style="fill:#aea;stroke:black;"/>
   <text width="92" height="20" x="957" y="295" style="fill:black;" font-family="Arial" font-size="16px">id</text>
   <rect width="92" height="20" x="952" y="301" style="fill:none;stroke:black;"/>
   <text width="92" height="20" x="957" y="315" style="fill:black;" font-family="Arial" font-size="16px">email</text>
   <rect width="92" height="20" x="952" y="321" style="fill:none;stroke:black;"/>
   <text width="92" height="20" x="957" y="335" style="fill:black;" font-family="Arial" font-size="16px">roles</text>
   <rect width="92" height="20" x="952" y="341" style="fill:none;stroke:black;"/>
   <text width="92" height="20" x="957" y="355" style="fill:black;" font-family="Arial" font-size="16px">password</text>
   <rect width="92" height="20" x="952" y="361" style="fill:none;stroke:black;"/>
   <text width="92" height="20" x="957" y="375" style="fill:black;" font-family="Arial" font-size="16px">pseudo</text>
   <rect width="92" height="20" x="952" y="381" style="fill:none;stroke:black;"/>
   <text width="92" height="20" x="957" y="395" style="fill:black;" font-family="Arial" font-size="16px">first_name</text>
   <rect width="92" height="20" x="952" y="401" style="fill:none;stroke:black;"/>
   <text width="92" height="20" x="957" y="415" style="fill:black;" font-family="Arial" font-size="16px">last_name</text>
   <rect width="92" height="20" x="952" y="421" style="fill:none;stroke:black;"/>
   <text width="92" height="20" x="957" y="435" style="fill:black;" font-family="Arial" font-size="16px">created_at</text>
   <rect width="92" height="20" x="952" y="441" style="fill:none;stroke:black;"/>
   <text width="92" height="20" x="957" y="455" style="fill:black;" font-family="Arial" font-size="16px">last_activity</text>
   <rect width="92" height="20" x="952" y="461" style="fill:none;stroke:black;"/>
   <text width="92" height="20" x="957" y="475" style="fill:black;" font-family="Arial" font-size="16px">avatar</text>
   <rect width="92" height="20" x="952" y="481" style="fill:none;stroke:black;"/>
   <text width="92" height="20" x="957" y="495" style="fill:black;" font-family="Arial" font-size="16px">birth_date</text>
   <rect width="92" height="20" x="952" y="501" style="fill:none;stroke:black;"/>
   <text width="92" height="20" x="957" y="515" style="fill:black;" font-family="Arial" font-size="16px">is_verified</text>
   <rect width="92" height="20" x="952" y="521" style="fill:none;stroke:black;"/>
   <text width="92" height="20" x="957" y="535" style="fill:black;" font-family="Arial" font-size="16px">total_credits</text>
   <rect width="92" height="20" x="952" y="541" style="fill:none;stroke:black;"/>
   <text width="92" height="20" x="957" y="555" style="fill:black;" font-family="Arial" font-size="16px">report</text>
   <rect width="121" height="20" x="759" y="667" style="fill:#007;stroke:black;"/>
   <text width="121" height="20" x="764" y="681" style="fill:#fff;" font-family="Arial" font-size="16px"> user_reservation</text>
   <rect width="121" height="20" x="759" y="687" style="fill:#aea;stroke:black;"/>
   <text width="121" height="20" x="764" y="701" style="fill:black;" font-family="Arial" font-size="16px">user_id</text>
   <rect width="121" height="20" x="759" y="707" style="fill:#aea;stroke:black;"/>
   <text width="121" height="20" x="764" y="721" style="fill:black;" font-family="Arial" font-size="16px">reservation_id</text>
</svg>
